<svg width="24" height="24" viewBox="0 0 24 24" fill="none" xmlns="http://www.w3.org/2000/svg">
  <!-- 케이크 접시 -->
  <ellipse cx="12" cy="19" rx="7" ry="1.5" fill="#FFFFFF" stroke="#333333" stroke-width="0.5"/>
  
  <!-- 케이크 -->
  <path d="M8 12H16V17H8V12Z" fill="#FFECB3" stroke="#FFA000" stroke-width="0.5"/>
  
  <!-- 케이크 층 -->
  <path d="M8 14H16" stroke="#FFA000" stroke-width="0.5" stroke-linecap="round" stroke-linejoin="round"/>
  
  <!-- 크림 -->
  <path d="M8 12C8 11 9 10 12 10C15 10 16 11 16 12" fill="#FFFFFF" stroke="#EEEEEE" stroke-width="0.5"/>
  
  <!-- 딸기 -->
  <circle cx="10" cy="11" r="0.8" fill="#F44336"/>
  <path d="M10 10.5L10.3 10" stroke="#4CAF50" stroke-width="0.5" stroke-linecap="round"/>
  
  <!-- 블루베리 -->
  <circle cx="12" cy="11" r="0.6" fill="#3F51B5"/>
  
  <!-- 초콜릿 -->
  <path d="M14 11L15 11" stroke="#5D4037" stroke-width="1.5" stroke-linecap="round"/>
  
  <!-- 커피 컵 -->
  <path d="M4 7C4 6.44772 4.44772 6 5 6H7V10H4V7Z" fill="#FFFFFF" stroke="#333333" stroke-width="0.5"/>
  <path d="M4 10C4 10 5 11 6 11C7 11 8 10 8 10" fill="#8D6E63" stroke="#5D4037" stroke-width="0.5"/>
  <path d="M5 6H7V5C7 4.44772 6.55228 4 6 4C5.44772 4 5 4.44772 5 5V6Z" fill="#FFFFFF" stroke="#333333" stroke-width="0.5"/>
  
  <!-- 커피 스팀 -->
  <path d="M6 3.5C6 3.5 5.5 3 6 2.5C6.5 2 7 2.5 7 2.5" stroke="#BDBDBD" stroke-width="0.5" stroke-linecap="round"/>
  <path d="M5.5 2.8C5.5 2.8 5 2.3 5.5 1.8C6 1.3 6.5 1.8 6.5 1.8" stroke="#BDBDBD" stroke-width="0.5" stroke-linecap="round"/>
  
  <!-- 머핀 -->
  <path d="M18 10C18 8.89543 17.1046 8 16 8C14.8954 8 14 8.89543 14 10V11H18V10Z" fill="#8D6E63" stroke="#5D4037" stroke-width="0.5"/>
  <path d="M14 11H18V12C18 12.5523 17.5523 13 17 13H15C14.4477 13 14 12.5523 14 12V11Z" fill="#D7CCC8" stroke="#8D6E63" stroke-width="0.5"/>
  
  <!-- 머핀 토핑 -->
  <circle cx="15" cy="9" r="0.4" fill="#FFEB3B"/>
  <circle cx="17" cy="9" r="0.4" fill="#FFEB3B"/>
  <circle cx="16" cy="8.5" r="0.4" fill="#FFEB3B"/>
</svg> 