<svg width="24" height="24" viewBox="0 0 24 24" fill="none" xmlns="http://www.w3.org/2000/svg">
  <!-- 접시 -->
  <ellipse cx="12" cy="19" rx="7" ry="1.5" fill="#FFFFFF" stroke="#333333" stroke-width="0.5" stroke-linecap="round" stroke-linejoin="round"/>
  
  <!-- 햄버거 아래 빵 -->
  <path d="M6 16C6 16.5523 8.68629 17 12 17C15.3137 17 18 16.5523 18 16C18 15.4477 15.3137 15 12 15C8.68629 15 6 15.4477 6 16Z" fill="#F9A825" stroke="#E65100" stroke-width="0.5"/>
  <path d="M7 15.7C7 15.7 9 16 12 16C15 16 17 15.7 17 15.7" stroke="#F57F17" stroke-width="0.5" stroke-linecap="round" stroke-linejoin="round"/>
  
  <!-- 패티 -->
  <path d="M7 13.5C7 14.3284 9.23858 15 12 15C14.7614 15 17 14.3284 17 13.5C17 12.6716 14.7614 12 12 12C9.23858 12 7 12.6716 7 13.5Z" fill="#5D4037" stroke="#3E2723" stroke-width="0.5"/>
  <path d="M8 13.3C8 13.3 9.5 13.8 12 13.8C14.5 13.8 16 13.3 16 13.3" stroke="#4E342E" stroke-width="0.5" stroke-linecap="round" stroke-linejoin="round"/>
  
  <!-- 치즈 -->
  <path d="M6.5 12C6.5 12.5523 8.96243 13 12 13C15.0376 13 17.5 12.5523 17.5 12C17.5 11.4477 15.0376 11 12 11C8.96243 11 6.5 11.4477 6.5 12Z" fill="#FFC107" stroke="#FFA000" stroke-width="0.5"/>
  
  <!-- 양상추 -->
  <path d="M7 10.5C7 11.3284 9.23858 12 12 12C14.7614 12 17 11.3284 17 10.5C17 9.67157 14.7614 9 12 9C9.23858 9 7 9.67157 7 10.5Z" fill="#4CAF50" stroke="#388E3C" stroke-width="0.5"/>
  <path d="M8 10.3C8 10.3 9 10.8 12 10.8C15 10.8 16 10.3 16 10.3" stroke="#2E7D32" stroke-width="0.5" stroke-linecap="round" stroke-linejoin="round"/>
  
  <!-- 토마토 -->
  <path d="M8 9C8 9.27614 9.79086 9.5 12 9.5C14.2091 9.5 16 9.27614 16 9C16 8.72386 14.2091 8.5 12 8.5C9.79086 8.5 8 8.72386 8 9Z" fill="#F44336" stroke="#D32F2F" stroke-width="0.5"/>
  
  <!-- 햄버거 위 빵 -->
  <path d="M6 8C6 8.55228 8.68629 9 12 9C15.3137 9 18 8.55228 18 8C18 7.44772 15.3137 7 12 7C8.68629 7 6 7.44772 6 8Z" fill="#F9A825" stroke="#E65100" stroke-width="0.5"/>
  <path d="M7 7.7C7 7.7 9 8 12 8C15 8 17 7.7 17 7.7" stroke="#F57F17" stroke-width="0.5" stroke-linecap="round" stroke-linejoin="round"/>
  <path d="M9 7C9 7 9.5 6.5 12 6.5C14.5 6.5 15 7 15 7" stroke="#F57F17" stroke-width="0.5" stroke-linecap="round" stroke-linejoin="round"/>
  
  <!-- 깨 -->
  <circle cx="9" cy="7.5" r="0.1" fill="#FFFFFF"/>
  <circle cx="11" cy="7.5" r="0.1" fill="#FFFFFF"/>
  <circle cx="13" cy="7.5" r="0.1" fill="#FFFFFF"/>
  <circle cx="15" cy="7.5" r="0.1" fill="#FFFFFF"/>
  
  <!-- 감자튀김 -->
  <path d="M19 10L20 14" stroke="#FFC107" stroke-width="1.5" stroke-linecap="round" stroke-linejoin="round"/>
  <path d="M20 10L21 14" stroke="#FFC107" stroke-width="1.5" stroke-linecap="round" stroke-linejoin="round"/>
  <path d="M18 10L17 14" stroke="#FFC107" stroke-width="1.5" stroke-linecap="round" stroke-linejoin="round"/>
</svg> 