<svg width="24" height="24" viewBox="0 0 24 24" fill="none" xmlns="http://www.w3.org/2000/svg">
  <!-- 접시 -->
  <ellipse cx="12" cy="14" rx="8" ry="3" fill="#FFFFFF" stroke="#333333" stroke-width="1" stroke-linecap="round" stroke-linejoin="round"/>
  
  <!-- 스시 1 -->
  <rect x="8" y="11" width="3" height="2" rx="0.5" fill="#FFFFFF" stroke="#333333" stroke-width="0.5"/>
  <path d="M8 12H11" stroke="#333333" stroke-width="0.5"/>
  <path d="M8.5 11C8.5 11 8.5 10 9.5 10C10.5 10 10.5 11 10.5 11" fill="#F44336" stroke="#F44336" stroke-width="0.5"/>
  
  <!-- 스시 2 -->
  <rect x="13" y="11" width="3" height="2" rx="0.5" fill="#FFFFFF" stroke="#333333" stroke-width="0.5"/>
  <path d="M13 12H16" stroke="#333333" stroke-width="0.5"/>
  <path d="M13.5 11C13.5 11 13.5 10 14.5 10C15.5 10 15.5 11 15.5 11" fill="#FF9800" stroke="#FF9800" stroke-width="0.5"/>
  
  <!-- 와사비 -->
  <circle cx="12" cy="13" r="0.5" fill="#4CAF50"/>
  
  <!-- 젓가락 -->
  <path d="M6 5V10" stroke="#8D6E63" stroke-width="1.5" stroke-linecap="round" stroke-linejoin="round"/>
  <path d="M4 4V9" stroke="#8D6E63" stroke-width="1.5" stroke-linecap="round" stroke-linejoin="round"/>
  
  <!-- 간장 접시 -->
  <ellipse cx="18" cy="16" rx="2" ry="1" fill="#2E1A0F" stroke="#333333" stroke-width="0.5"/>
</svg> 