<svg width="24" height="24" viewBox="0 0 24 24" fill="none" xmlns="http://www.w3.org/2000/svg">
  <!-- 접시 -->
  <ellipse cx="12" cy="17" rx="8" ry="2" fill="#FFFFFF" stroke="#333333" stroke-width="1" stroke-linecap="round" stroke-linejoin="round"/>
  
  <!-- 김밥 1 -->
  <rect x="6" y="8" width="12" height="3" rx="1.5" fill="#FFFFFF" stroke="#333333" stroke-width="1"/>
  <rect x="6" y="8" width="12" height="3" rx="1.5" fill="#FFFFFF" stroke="#333333" stroke-width="1"/>
  <path d="M6 9.5H18" stroke="#333333" stroke-width="0.5"/>
  
  <!-- 김 -->
  <rect x="6" y="8" width="12" height="3" rx="1.5" stroke="#000000" stroke-width="0.5" stroke-dasharray="1 1"/>
  
  <!-- 속재료 -->
  <circle cx="8" cy="9.5" r="0.5" fill="#F44336"/> <!-- 당근 -->
  <circle cx="10" cy="9.5" r="0.5" fill="#FFEB3B"/> <!-- 단무지 -->
  <circle cx="12" cy="9.5" r="0.5" fill="#4CAF50"/> <!-- 시금치 -->
  <circle cx="14" cy="9.5" r="0.5" fill="#795548"/> <!-- 소고기 -->
  <circle cx="16" cy="9.5" r="0.5" fill="#FFFFFF" stroke="#333333" stroke-width="0.2"/> <!-- 밥 -->
  
  <!-- 김밥 2 (잘린 부분) -->
  <rect x="8" y="12" width="8" height="3" rx="1.5" fill="#FFFFFF" stroke="#333333" stroke-width="1"/>
  <path d="M8 13.5H16" stroke="#333333" stroke-width="0.5"/>
  
  <!-- 김 -->
  <rect x="8" y="12" width="8" height="3" rx="1.5" stroke="#000000" stroke-width="0.5" stroke-dasharray="1 1"/>
  
  <!-- 속재료 -->
  <circle cx="10" cy="13.5" r="0.5" fill="#F44336"/> <!-- 당근 -->
  <circle cx="12" cy="13.5" r="0.5" fill="#4CAF50"/> <!-- 시금치 -->
  <circle cx="14" cy="13.5" r="0.5" fill="#FFEB3B"/> <!-- 단무지 -->
  
  <!-- 젓가락 -->
  <path d="M4 5V10" stroke="#8D6E63" stroke-width="1" stroke-linecap="round" stroke-linejoin="round"/>
  <path d="M20 5V10" stroke="#8D6E63" stroke-width="1" stroke-linecap="round" stroke-linejoin="round"/>
</svg> 