<svg width="24" height="24" viewBox="0 0 24 24" fill="none" xmlns="http://www.w3.org/2000/svg">
  <!-- 접시 -->
  <ellipse cx="12" cy="16" rx="8" ry="3" fill="#FFFFFF" stroke="#333333" stroke-width="1" stroke-linecap="round" stroke-linejoin="round"/>
  
  <!-- 돈까스 -->
  <path d="M7 10C7 10 8 14 12 14C16 14 17 10 17 10C17 10 16 8 12 8C8 8 7 10 7 10Z" fill="#D2B48C" stroke="#8D6E63" stroke-width="1" stroke-linecap="round" stroke-linejoin="round"/>
  
  <!-- 튀김옷 질감 -->
  <path d="M9 9.5C9 9.5 10 12 12 12C14 12 15 9.5 15 9.5" stroke="#A1887F" stroke-width="0.5" stroke-linecap="round" stroke-linejoin="round"/>
  <path d="M10 11C10 11 11 12.5 12 12.5C13 12.5 14 11 14 11" stroke="#A1887F" stroke-width="0.5" stroke-linecap="round" stroke-linejoin="round"/>
  
  <!-- 소스 -->
  <path d="M8 13C8 13 10 15 12 15C14 15 16 13 16 13" fill="#B71C1C" stroke="#B71C1C" stroke-width="0.5" stroke-linecap="round" stroke-linejoin="round"/>
  
  <!-- 양배추 -->
  <path d="M16 12C16 12 17 13 18 13C19 13 19.5 12 19.5 12" stroke="#4CAF50" stroke-width="1" stroke-linecap="round" stroke-linejoin="round"/>
  <path d="M16.5 12.5C16.5 12.5 17.5 13.5 18.5 13.5C19.5 13.5 20 12.5 20 12.5" stroke="#4CAF50" stroke-width="1" stroke-linecap="round" stroke-linejoin="round"/>
  
  <!-- 포크와 나이프 -->
  <path d="M5 5V9" stroke="#9E9E9E" stroke-width="1" stroke-linecap="round" stroke-linejoin="round"/>
  <path d="M4 6H6" stroke="#9E9E9E" stroke-width="1" stroke-linecap="round" stroke-linejoin="round"/>
  <path d="M19 5L19 9" stroke="#9E9E9E" stroke-width="1" stroke-linecap="round" stroke-linejoin="round"/>
</svg> 